:SAMPLES-PER-SECOND 30
:FULLY-SPECIFIED
:DEGREES
79
root  4.73754 38.9175 -1.41031 -147.506 -79.4459 140.851
RightUpLeg  -3.27706 1.13202 -10.9355
RightLeg  63.2731 -0.499068 -1.6006
RightFoot  12.6144 -1.3872 6.89512
RightToes  8.73114e-010 0 -3.6325e-017
Spine  6.22982 2.46048 0.411119
Spine1  12.5948 4.77736 -7.97805
HEad  1.14492 3.94411 -4.69305
LeftShoulder1  9.50566 -13.0675 -50.0763
LeftArm  -8.26224 19.9205 -25.239
LeftForeArm  21.7699 -13.9813 -4.93182
LeftHand  -0.244104 0.0205437 5.32207
RightShoulder  8.08313 11.9906 45.5842
RightArm  -1.88099 7.12843 36.3338
RightForeArm  16.7923 -2.1411 7.96231
RightHand  -0.833813 0.959286 -15.3316
LeftUpLeg  -14.3348 15.4717 -11.2311
LeftLeg  21.7021 5.9557 2.95672
LeftFoot  -3.32502 -0.482808 7.16317
LeftToes  -7.64008e-011 1.13257e-010 -2.15718e-012
80
root  3.18416 39.4164 -1.37883 -149.021 -80.5083 142.021
RightUpLeg  -8.74581 0.834083 -9.58148
RightLeg  64.7823 -1.53995 -4.15784
RightFoot  8.93043 -0.795929 4.83153
RightToes  8.73114e-010 0 -3.6325e-017
Spine  7.00025 1.52699 0.872385
Spine1  12.356 3.69521 -7.25629
HEad  1.21587 4.33868 -5.31726
LeftShoulder1  9.42458 -12.9742 -49.9305
LeftArm  -6.23207 17.9492 -25.2991
LeftForeArm  20.6517 -17.7628 -4.38019
LeftHand  -0.244104 0.0205437 5.32207
RightShoulder  8.0914 11.8946 45.9266
RightArm  -1.84506 3.85322 35.4156
RightForeArm  19.8973 -1.55246 7.62422
RightHand  -0.844964 0.862718 -15.7514
LeftUpLeg  -9.72822 15.2638 -9.85954
LeftLeg  19.1166 5.62109 2.24808
LeftFoot  -4.59733 -0.345221 6.3157
LeftToes  -7.64008e-011 1.13257e-010 -2.15718e-012
81
root  1.69142 39.7662 -1.34726 -151.106 -81.9883 144.015
RightUpLeg  -13.5934 0.14881 -8.06554
RightLeg  62.5463 -2.21364 -5.17919
RightFoot  6.52433 -0.690899 4.6788
RightToes  8.73114e-010 0 -3.6325e-017
Spine  7.79014 0.670374 1.56806
Spine1  12.0695 2.58979 -6.61777
HEad  1.16215 4.39497 -5.56747
LeftShoulder1  9.2823 -12.8225 -49.6348
LeftArm  -5.27917 16.0782 -25.4803
LeftForeArm  20.9766 -22.3378 -3.92553
LeftHand  -0.244104 0.0205437 5.32207
RightShoulder  7.85793 11.5912 45.4812
RightArm  -0.628874 -0.869517 34.3083
RightForeArm  18.3768 2.52885 8.05811
RightHand  -0.883742 1.16246 -15.7377
LeftUpLeg  -5.8063 13.0686 -8.06355
LeftLeg  17.3118 6.98177 1.41085
LeftFoot  -6.25135 -0.221105 5.83842
LeftToes  -7.64008e-011 1.13257e-010 -2.15718e-012
82
root  0.186061 40.0143 -1.32285 -153.074 -83.4907 145.966
RightUpLeg  -17.5487 -0.794845 -6.65933
RightLeg  57.1472 -2.61655 -4.82655
RightFoot  5.21947 -0.55526 4.05023
RightToes  8.73114e-010 0 -3.6325e-017
Spine  8.49661 -0.0272604 1.97793
Spine1  11.6167 1.5108 -5.51223
HEad  1.08778 4.34425 -5.67614
LeftShoulder1  9.16884 -12.6826 -49.4516
LeftArm  -6.77998 14.6566 -25.441
LeftForeArm  23.6171 -27.6695 -4.65951
LeftHand  -0.244104 0.0205437 5.32207
RightShoulder  7.51198 11.234 44.4964
RightArm  2.07567 -5.9601 32.9737
RightForeArm  12.7862 7.82301 8.72362
RightHand  -0.824771 1.08976 -14.8605
LeftUpLeg  -2.06966 9.93139 -6.52054
LeftLeg  15.435 8.87003 0.368212
LeftFoot  -7.70419 -0.142839 5.96421
LeftToes  -7.64008e-011 1.13257e-010 -2.15718e-012
83
root  -1.33534 40.1336 -1.33045 -151.628 -84.7115 144.417
RightUpLeg  -20.0823 -2.08156 -5.81925
RightLeg  48.5688 -2.56521 -3.47242
RightFoot  3.72301 -0.460332 3.68967
RightToes  8.73114e-010 0 -3.6325e-017
Spine  9.1516 -0.527551 1.65652
Spine1  11.1482 0.553689 -4.2126
HEad  0.894296 4.23091 -5.63833
LeftShoulder1  9.09268 -12.5788 -49.3568
LeftArm  -8.12648 13.4943 -25.1427
LeftForeArm  25.9291 -33.3769 -5.91313
LeftHand  -0.244104 0.0205437 5.32207
RightShoulder  7.24435 10.941 43.7476
RightArm  8.09069 -10.6662 31.2996
RightForeArm  4.37591 13.396 8.22754
RightHand  -0.776171 0.911736 -14.3876
LeftUpLeg  1.40973 7.38147 -5.6585
LeftLeg  13.9447 10.1243 -0.610777
LeftFoot  -9.34481 -0.0472924 5.87273
LeftToes  -7.64008e-011 1.13257e-010 -2.15718e-012
84
root  -2.92493 40.0325 -1.39664 -142.723 -85.3754 135.444
RightUpLeg  -21.1597 -3.8762 -5.78281
RightLeg  37.3598 -2.21472 -2.0568
RightFoot  2.57065 -0.603532 5.08287
RightToes  8.73114e-010 0 -3.6325e-017
Spine  9.27921 -0.830684 0.402194
Spine1  11.0443 -0.172368 -3.28106
HEad  0.432912 4.04858 -5.37608
LeftShoulder1  9.0124 -12.4984 -49.1662
LeftArm  -9.03305 12.2644 -24.7953
LeftForeArm  27.7658 -38.7074 -7.23741
LeftHand  -0.244104 0.0205437 5.32207
RightShoulder  7.06203 10.7055 43.3308
RightArm  13.3605 -14.5813 29.5809
RightForeArm  -1.35824 17.6536 6.741
RightHand  -0.864557 1.30554 -15.0714
LeftUpLeg  4.16323 6.07254 -5.55863
LeftLeg  14.0478 10.5457 -1.23906
LeftFoot  -11.8951 0.0981037 5.42956
LeftToes  -7.64008e-011 1.13257e-010 -2.15718e-012
85
root  -4.61687 39.8495 -1.49175 -129.977 -85.6456 122.835
RightUpLeg  -21.1812 -6.89039 -5.56023
RightLeg  24.3893 -1.54163 -1.11048
RightFoot  2.34135 -0.744673 6.33052
RightToes  8.73114e-010 0 -3.6325e-017
Spine  8.51659 -1.08954 -0.947964
Spine1  11.4936 -0.772558 -2.32019
HEad  -0.0813597 3.88598 -4.97924
LeftShoulder1  8.94869 -12.4508 -48.9639
LeftArm  -9.88476 11.0869 -24.4214
LeftForeArm  29.4459 -43.3007 -8.55423
LeftHand  -0.244104 0.0205437 5.32207
RightShoulder  6.87446 10.4822 42.824
RightArm  14.425 -17.4677 28.336
RightForeArm  -2.07847 19.0785 6.08221
RightHand  -1.02106 2.03604 -16.0795
LeftUpLeg  6.98323 5.41511 -5.68123
LeftLeg  13.9556 10.4437 -1.80342
LeftFoot  -14.3314 0.226037 5.31826
LeftToes  -7.64008e-011 1.13257e-010 -2.15718e-012
86
root  -6.35379 39.6817 -1.58313 -117.149 -85.8401 110.158
RightUpLeg  -20.2695 -9.71627 -5.27089
RightLeg  10.6913 -0.95717 0.526893
RightFoot  2.26649 -0.714381 6.10483
RightToes  8.73114e-010 0 -3.6325e-017
Spine  7.49364 -1.39685 -1.7309
Spine1  12.1248 -1.38057 -1.13809
HEad  -0.320609 3.70669 -4.56888
LeftShoulder1  8.93941 -12.4556 -48.8983
LeftArm  -10.5136 10.232 -23.8546
LeftForeArm  30.7829 -46.9488 -9.75866
LeftHand  -0.244104 0.0205437 5.32207
RightShoulder  6.7002 10.2944 42.2738
RightArm  11.871 -19.432 27.5884
RightForeArm  0.101868 17.4537 6.62049
RightHand  -1.0823 2.36662 -16.3189
LeftUpLeg  10.4567 5.0292 -5.58385
LeftLeg  12.5761 9.75141 -2.43762
LeftFoot  -16.1976 0.317694 5.2115
LeftToes  -7.64008e-011 1.13257e-010 -2.15718e-012
